#!OML:ASF F:\VICON\USERDATA\INSTALL\rory3\rory3.ASF
:FULLY-SPECIFIED
:DEGREES
1325
root 3.9227 18.4093 -1.91197 -189.187 41.0792 181.183
lowerback 2.21201 0.000128695 -1.13963
upperback -2.31215 -0.0545786 -1.59876
thorax -3.61911 -0.00183547 -1.00503
lowerneck -18.2944 -3.30969 -8.44303
upperneck 37.5666 -2.02298 5.65854
head 16.9025 -0.463245 3.88591
rclavicle 1.36764e-013 3.89618e-014
rhumerus 451.529 -10.8739 -377.629
rradius 87.027
rwrist 12.2731
rhand -39.556 14.0085
rfingers 7.12502
rthumb -12.5397 -15.5952
lclavicle 1.36764e-013 3.89618e-014
lhumerus 91.955 -36.4182 42.744
lradius 44.4666
lwrist -13.3582
lhand -37.565 20.7309
lfingers 7.12502
lthumb -10.6197 50.4426
rfemur -3.24133 14.5064 12.1459
rtibia 39.1015
rfoot -14.2052 -19.2553
rtoes -5.40446
lfemur 4.67137 -9.09597 -17.3323
ltibia 26.6993
lfoot -18.1741 -1.06403
ltoes 4.25432
1326
root 3.94388 18.3999 -1.90212 -188.887 41.1872 181.46
lowerback 2.05928 -0.00862724 -0.717673
upperback -2.37774 -0.0490701 -1.70176
thorax -3.60103 -0.0106752 -1.34809
lowerneck -18.8905 -3.27281 -8.7005
upperneck 37.2604 -1.95773 5.77532
head 16.8877 -0.48415 3.977
rclavicle 2.20651e-014 3.97569e-015
rhumerus 452.144 -10.3174 -377.339
rradius 88.066
rwrist 12.3705
rhand -39.3597 14.1843
rfingers 7.12502
rthumb -12.3505 -15.4309
lclavicle 2.20651e-014 3.97569e-015
lhumerus 92.7701 -38.9852 41.0815
lradius 45.4765
lwrist -14.9489
lhand -37.9089 20.258
lfingers 7.12502
lthumb -10.9514 49.9523
rfemur -3.13404 14.2259 12.5928
rtibia 39.1351
rfoot -14.4865 -20.4755
rtoes -5.46905
lfemur 4.46438 -8.95377 -16.9416
ltibia 26.9301
lfoot -18.2254 -1.32716
ltoes 4.88638
1327
root 3.97009 18.3896 -1.88892 -188.621 41.3835 181.718
lowerback 1.9267 0.0128383 -0.345157
upperback -2.42367 -0.00623331 -1.79531
thorax -3.5731 0.000254723 -1.65567
lowerneck -19.4325 -3.20047 -8.98022
upperneck 36.8277 -1.8297 5.86519
head 16.785 -0.48759 4.06234
rclavicle -1.07741e-013 2.46493e-014
rhumerus 452.622 -9.7309 -376.979
rradius 88.9219
rwrist 12.4402
rhand -38.9031 14.3587
rfingers 7.12502
rthumb -11.9102 -15.2825
lclavicle -1.07741e-013 2.46493e-014
lhumerus 93.8434 -41.2606 38.9038
lradius 46.4845
lwrist -16.6933
lhand -38.6556 19.8909
lfingers 7.12502
lthumb -11.6715 49.5458
rfemur -3.02836 14.0347 13.0493
rtibia 39.1387
rfoot -15.1181 -21.4976
rtoes -6.56321
lfemur 4.28002 -8.64666 -16.5058
ltibia 27.1786
lfoot -18.2811 -1.68955
ltoes 5.37566
1328
root 3.99694 18.3803 -1.87854 -188.53 41.5772 181.762
lowerback 1.84847 0.0252349 -0.156373
upperback -2.48326 0.0173186 -1.88387
thorax -3.59014 0.00666136 -1.85438
lowerneck -20.0189 -3.0835 -9.07667
upperneck 36.2887 -1.633 5.75181
head 16.6245 -0.468056 4.02875
rclavicle 2.98177e-015 -1.82882e-014
rhumerus 453.055 -9.07905 -376.452
rradius 89.3924
rwrist 12.8978
rhand -39.1565 14.3053
rfingers 7.12502
rthumb -12.1546 -15.3216
lclavicle 2.98177e-015 -1.82882e-014
lhumerus 94.9579 -43.1278 36.3884
lradius 47.5531
lwrist -18.4771
lhand -39.5462 19.5735
lfingers 7.12502
lthumb -12.5303 49.1778
rfemur -2.88728 13.8191 13.3007
rtibia 39.1217
rfoot -15.7806 -22.3753
rtoes -6.72574
lfemur 4.14114 -8.4536 -16.3118
ltibia 27.4602
lfoot -18.4318 -1.82801
ltoes 5.20103
1329
root 4.02348 18.3662 -1.86902 -188.537 41.7552 181.677
lowerback 1.76904 -0.000985881 -0.119448
upperback -2.54052 -0.0152182 -1.94504
thorax -3.60569 -0.0104201 -1.93682
lowerneck -20.6703 -2.91911 -8.97626
upperneck 35.7734 -1.36883 5.4754
head 16.4825 -0.415441 3.90403
rclavicle -8.07066e-014 -3.33958e-014
rhumerus 453.279 -8.7093 -375.815
rradius 89.7534
rwrist 13.3975
rhand -39.6583 14.2976
rfingers 7.12502
rthumb -12.6383 -15.3001
lclavicle -8.07066e-014 -3.33958e-014
lhumerus 95.8901 -44.7119 34.072
lradius 48.3242
lwrist -20.8614
lhand -39.9377 17.9664
lfingers 7.12502
lthumb -12.9077 47.5472
rfemur -2.73108 13.5028 13.4245
rtibia 39.1167
rfoot -16.0182 -23.3901
rtoes -6.67139
lfemur 4.04004 -8.35452 -16.2737
ltibia 27.7248
lfoot -18.5973 -1.83832
ltoes 4.70132
1330
root 4.05235 18.3488 -1.85301 -188.47 41.967 181.72
lowerback 1.69565 -0.0265642 -0.0420489
upperback -2.57657 -0.0457602 -1.97195
thorax -3.60272 -0.0276503 -2.00663
lowerneck -21.1935 -2.76295 -8.83217
upperneck 35.2447 -1.12941 5.1751
head 16.3085 -0.366808 3.75768
rclavicle 2.80286e-014 -3.4191e-014
rhumerus 453.122 -8.74735 -375.055
rradius 90.1512
rwrist 13.5509
rhand -39.786 14.2721
rfingers 7.12502
rthumb -12.7615 -15.3179
lclavicle 2.80286e-014 -3.4191e-014
lhumerus 96.8259 -46.1146 31.8563
lradius 48.7299
lwrist -23.5721
lhand -41.0076 19.0983
lfingers 7.12502
lthumb -13.939 48.6111
rfemur -2.58327 13.2451 13.7289
rtibia 39.1104
rfoot -15.9939 -24.5966
rtoes -7.83809
lfemur 3.94347 -8.2211 -16.0882
ltibia 27.9641
lfoot -18.7454 -1.92259
ltoes 4.38838
1331
root 4.08216 18.3284 -1.83215 -188.599 42.2854 181.541
lowerback 1.70228 -0.00781801 -0.129436
upperback -2.60979 -0.0237167 -2.03499
thorax -3.64018 -0.0143743 -2.02401
lowerneck -21.5621 -2.60176 -8.78455
upperneck 34.831 -0.896123 5.04598
head 16.1619 -0.30054 3.71283
rclavicle -4.03533e-014 2.22639e-014
rhumerus 452.732 -8.896 -374.147
rradius 90.3099
rwrist 13.7403
rhand -40.0997 14.6648
rfingers 7.12502
rthumb -13.0639 -14.9061
lclavicle -4.03533e-014 2.22639e-014
lhumerus 97.8622 -47.2408 29.4849
lradius 48.9755
lwrist -26.0504
lhand -41.9128 18.5976
lfingers 7.12502
lthumb -14.8111 48.0483
rfemur -2.40045 13.2136 13.8699
rtibia 39.0911
rfoot -16.4759 -25.4643
rtoes -8.60153
lfemur 3.90891 -7.96256 -16.0588
ltibia 28.1972
lfoot -18.9153 -1.99875
ltoes 4.44221
1332
root 4.11331 18.3108 -1.812 -188.831 42.6807 181.284
lowerback 1.72742 0.0324188 -0.261708
upperback -2.68755 0.0258082 -2.07789
thorax -3.7333 0.0141637 -1.99718
lowerneck -21.7731 -2.40032 -8.92097
upperneck 34.6365 -0.613216 5.21158
head 16.0863 -0.184116 3.85457
rclavicle -1.08338e-013 9.54166e-015
rhumerus 452.193 -8.98762 -373.159
rradius 90.1985
rwrist 14.003
rhand -40.4784 15.5449
rfingers 7.12502
rthumb -13.429 -14.0022
lclavicle -1.08338e-013 9.54166e-015
lhumerus 98.6663 -48.2016 27.3286
lradius 48.9702
lwrist -28.7029
lhand -42.8485 14.8893
lfingers 7.12502
lthumb -15.7125 44.2714
rfemur -2.13749 13.2679 13.9425
rtibia 39.0275
rfoot -17.3348 -25.9113
rtoes -8.50011
lfemur 3.95796 -7.68695 -16.1059
ltibia 28.4211
lfoot -19.1121 -2.07019
ltoes 4.6717
1333
root 4.14834 18.2944 -1.79568 -188.894 43.0572 181.247
lowerback 1.60555 0.0258914 -0.138691
upperback -2.74612 0.023121 -2.13887
thorax -3.72528 0.00947132 -2.12915
lowerneck -21.9783 -2.18367 -8.89802
upperneck 34.2953 -0.372899 5.32166
head 15.9379 -0.074516 3.92536
rclavicle 2.44505e-014 4.77083e-015
rhumerus 451.484 -9.23021 -372.239
rradius 89.8031
rwrist 14.5562
rhand -40.7746 16.2267
rfingers 7.12502
rthumb -13.7144 -13.3014
lclavicle 2.44505e-014 4.77083e-015
lhumerus 99.1646 -49.0148 25.5269
lradius 48.5707
lwrist -31.4806
lhand -43.7759 16.9204
lfingers 7.12502
lthumb -16.6055 46.23
rfemur -1.85011 13.2627 14.1926
rtibia 38.9366
rfoot -18.1974 -26.2642
rtoes -8.68523
lfemur 4.0408 -7.44823 -15.967
ltibia 28.5806
lfoot -19.2344 -2.18719
ltoes 4.89916
1334
root 4.18363 18.2777 -1.78009 -188.904 43.497 181.342
lowerback 1.52299 -0.0239238 0.0866828
upperback -2.69853 -0.0366386 -2.18724
thorax -3.63198 -0.02719 -2.30231
lowerneck -22.4737 -1.97044 -8.56485
upperneck 33.9492 -0.139997 5.1187
head 15.856 0.0194756 3.8052
rclavicle -1.08536e-013 6.36111e-015
rhumerus 450.644 -9.68668 -371.423
rradius 89.2313
rwrist 15.5862
rhand -41.2009 16.1832
rfingers 7.12502
rthumb -14.1252 -13.3167
lclavicle -1.08536e-013 6.36111e-015
lhumerus 99.5784 -49.3199 23.6694
lradius 48.1616
lwrist -32.9783
lhand -44.5942 15.5833
lfingers 7.12502
lthumb -17.3931 44.8251
rfemur -1.52314 13.2758 14.5546
rtibia 38.8028
rfoot -18.9823 -26.6142
rtoes -9.91311
lfemur 4.21831 -7.21113 -15.7349
ltibia 28.6703
lfoot -19.3129 -2.17096
ltoes 4.59223
1335
root 4.21909 18.2621 -1.75877 -189.164 44.005 181.093
lowerback 1.53388 -0.0462204 0.00377297
upperback -2.71879 -0.0695229 -2.2675
thorax -3.66062 -0.0415936 -2.33741
lowerneck -22.7956 -1.76938 -8.18821
upperneck 33.8336 0.125058 4.78719
head 15.8472 0.12077 3.64143
rclavicle 3.37934e-015 -7.95139e-016
rhumerus 449.538 -10.0225 -370.631
rradius 88.5013
rwrist 17.0161
rhand -42.0371 15.6095
rfingers 7.12502
rthumb -14.9309 -13.8323
lclavicle 3.37934e-015 -7.95139e-016
lhumerus 99.5248 -49.5991 22.2165
lradius 47.8282
lwrist -33.5863
lhand -44.7895 11.4763
lfingers 7.12502
lthumb -17.5811 40.7014
rfemur -1.22359 13.3919 14.6434
rtibia 38.6081
rfoot -19.7851 -26.9747
rtoes -10.54
lfemur 4.43945 -6.85163 -15.7439
ltibia 28.6939
lfoot -19.4068 -2.10341
ltoes 3.83049
1336
root 4.25755 18.2486 -1.73359 -189.394 44.5313 180.865
lowerback 1.48384 -0.066531 -0.0724388
upperback -2.819 -0.0975687 -2.34088
thorax -3.73744 -0.0532557 -2.36984
lowerneck -22.5617 -1.61024 -8.01429
upperneck 33.5814 0.303884 4.64099
head 15.6533 0.196526 3.56399
rclavicle -1.8487e-014 -7.95139e-015
rhumerus 448.232 -10.2504 -369.873
rradius 87.5506
rwrist 18.5121
rhand -42.666 15.3369
rfingers 7.12502
rthumb -15.5367 -14.0589
lclavicle -1.8487e-014 -7.95139e-015
lhumerus 98.7216 -49.8623 21.1712
lradius 47.8393
lwrist -33.8349
lhand -45.2092 14.8509
lfingers 7.12502
lthumb -17.985 44.0394
rfemur -0.96706 13.5613 14.7713
rtibia 38.3307
rfoot -20.2141 -27.5031
rtoes -11.742
lfemur 4.67496 -6.56211 -15.7259
ltibia 28.6623
lfoot -19.5294 -2.09238
ltoes 3.9589
1337
root 4.30075 18.2379 -1.71236 -189.684 45.0779 180.706
lowerback 1.46817 -0.0880422 -0.073826
upperback -2.90967 -0.125773 -2.38025
thorax -3.824 -0.0673815 -2.4092
lowerneck -21.4508 -2.02635 -9.56371
upperneck 32.549 -0.312864 5.83034
head 14.9751 -0.0885178 4.15354
rclavicle 1.47101e-014 2.70347e-014
rhumerus 446.823 -10.5526 -369.106
rradius 86.4816
rwrist 19.5426
rhand -42.3396 16.0046
rfingers 7.12502
rthumb -15.2223 -13.4154
lclavicle 1.47101e-014 2.70347e-014
lhumerus 97.0085 -50.051 20.749
lradius 48.1461
lwrist -33.9272
lhand -45.1648 15.4191
lfingers 7.12502
lthumb -17.9422 44.6115
rfemur -0.560245 13.7714 14.9876
rtibia 37.9546
rfoot -20.3602 -28.0544
rtoes -13.4601
lfemur 5.08783 -6.44763 -15.7282
ltibia 28.6134
lfoot -19.7749 -1.86821
ltoes 3.95328
1338
root 4.34454 18.2299 -1.68972 -189.833 45.7284 180.719
lowerback 1.46761 -0.102483 0.0120921
upperback -3.03908 -0.141113 -2.28954
thorax -3.9585 -0.07737 -2.36383
lowerneck -20.6157 -1.77363 -9.63432
upperneck 32.1266 0.0100597 5.80911
head 14.5594 0.0473355 4.17877
rclavicle 3.24019e-014 -7.95139e-015
rhumerus 445.439 -10.8086 -368.245
rradius 85.3192
rwrist 20.3078
rhand -41.5974 16.2189
rfingers 7.12502
rthumb -14.5073 -13.254
lclavicle 3.24019e-014 -7.95139e-015
lhumerus 94.5044 -50.2367 21.5043
lradius 47.8307
lwrist -34.4282
lhand -45.4228 15.2374
lfingers 7.12502
lthumb -18.1904 44.4068
rfemur -0.175533 14.0754 15.3471
rtibia 37.4872
rfoot -20.525 -28.4099
rtoes -14.1999
lfemur 5.50761 -6.28011 -15.5773
ltibia 28.5453
lfoot -20.0568 -1.55571
ltoes 3.49632
1339
root 4.38459 18.221 -1.6624 -189.653 46.4825 181.02
lowerback 1.38329 -0.113741 0.334334
upperback -3.12792 -0.143176 -2.13195
thorax -4.00349 -0.0877609 -2.38212
lowerneck -21.8826 -1.38979 -7.57888
upperneck 33.536 0.623886 4.06607
head 15.4514 0.310317 3.28939
rclavicle 2.3059e-014 4.77083e-015
rhumerus 443.85 -11.2734 -367.228
rradius 83.9393
rwrist 21.0649
rhand -41.5685 15.3686
rfingers 7.12502
rthumb -14.4794 -14.1062
lclavicle 2.3059e-014 4.77083e-015
lhumerus 91.6827 -50.14 22.8142
lradius 47.1295
lwrist -34.4329
lhand -45.2294 15.2502
lfingers 7.12502
lthumb -18.0044 44.4368
rfemur 0.0241069 14.4712 15.8851
rtibia 36.9452
rfoot -21.0085 -28.5721
rtoes -13.8676
lfemur 5.79557 -5.95949 -15.1368
ltibia 28.4363
lfoot -20.1636 -1.27699
ltoes 2.63369
